<?xml version="1.0" standalone="no"?>
<!DOCTYPE svg PUBLIC "-//W3C//DTD SVG 20010904//EN"
 "http://www.w3.org/TR/2001/REC-SVG-20010904/DTD/svg10.dtd">
<svg version="1.0" xmlns="http://www.w3.org/2000/svg"
 width="291.000000pt" height="224.000000pt" viewBox="0 0 291.000000 224.000000"
 preserveAspectRatio="xMidYMid meet">

<g transform="translate(0.000000,224.000000) scale(0.100000,-0.100000)"
fill="#568EEE" stroke="none">
<path d="M779 1909 c-173 -18 -332 -79 -458 -174 -97 -74 -120 -125 -84 -186
25 -42 74 -62 143 -57 52 4 65 9 117 52 129 106 241 141 433 133 150 -7 246
-27 530 -111 344 -102 423 -118 600 -118 223 0 402 66 560 204 79 70 90 115
40 171 -52 60 -156 68 -219 17 -159 -128 -210 -151 -361 -157 -130 -6 -229 13
-508 97 -248 74 -333 95 -452 114 -130 20 -251 25 -341 15z"/>
<path d="M780 1350 c-169 -17 -333 -80 -459 -175 -108 -82 -126 -138 -67 -203
34 -36 36 -37 109 -37 70 0 78 2 114 33 66 56 138 100 204 124 56 20 83 23
214 23 178 0 249 -14 570 -110 255 -76 378 -104 509 -114 186 -15 344 15 484
90 82 44 180 116 211 155 37 48 21 127 -33 156 -76 41 -147 27 -240 -48 -117
-94 -201 -124 -344 -124 -108 0 -236 27 -480 100 -248 74 -333 95 -452 114
-128 19 -249 25 -340 16z"/>
<path d="M780 790 c-169 -17 -333 -80 -459 -175 -107 -82 -126 -138 -68 -201
26 -29 42 -37 79 -41 73 -8 110 3 168 53 120 102 239 139 430 131 150 -6 250
-27 540 -113 287 -86 431 -115 579 -116 217 0 362 45 523 164 89 66 118 101
118 144 0 61 -36 98 -110 115 -55 13 -109 -7 -184 -67 -117 -94 -201 -124
-344 -124 -108 0 -236 27 -480 100 -248 74 -333 95 -452 114 -128 19 -249 25
-340 16z"/>
</g>
</svg>
